<?xml version="1.0" encoding="utf-8"?>
<svg id="master-artboard" viewBox="0 0 1153.43896484375 333.09503173828125" version="1.1" xmlns="http://www.w3.org/2000/svg" x="0px" y="0px" style="enable-background:new 0 0 1400 980;">
<g transform="matrix(0.8993382453918457, 0, 0, 0.8993382453918457, -125.82238937451166, -115.76071166992188)"><g>
	<g>
		<g>
			<g>
				<linearGradient id="SVGID_1_" gradientUnits="userSpaceOnUse" x1="213.4446" y1="163.0829" x2="451.7326" y2="401.3709">
					<stop offset="0" style="stop-color:#C7D300"/>
					<stop offset="1" style="stop-color:#007A67"/>
				</linearGradient>
				<path class="st0" d="M448,187.5c-27.8-32.1-67.7-53.5-112.6-57c-4.3-0.3-8.6-0.5-13-0.5c-4.4,0-8.8,0.2-13.2,0.5&#10;&#9;&#9;&#9;&#9;&#9;C218.5,137,146.1,209.4,139.7,300c3.5-44.9,24.9-84.7,57-112.5c29.1-25.1,67-40.4,108.5-40.4c5.8,0,11.5,0.3,17.2,0.9&#10;&#9;&#9;&#9;&#9;&#9;c43.3,4.4,81.6,25.5,108.5,56.6c23.5,27.2,38.3,62.2,40.2,100.5c0.2,2.7,0.2,5.3,0.2,8c0,2.7-0.1,5.4-0.2,8.1&#10;&#9;&#9;&#9;&#9;&#9;c-4.1,75.8-64.8,136.5-140.5,140.5c38.3-1.8,73.2-16.7,100.4-40.2c31.2-26.9,52.2-65.3,56.7-108.5c0.6-5.6,0.9-11.4,0.9-17.2&#10;&#9;&#9;&#9;&#9;&#9;C488.3,254.5,473.1,216.6,448,187.5z" style="fill: url('#SVGID_1_'); fill-opacity: 1; stroke-opacity: 1;"/>
				<g>
					<linearGradient id="SVGID_2_" gradientUnits="userSpaceOnUse" x1="412.8439" y1="186.1054" x2="174.533" y2="424.4163">
						<stop offset="3.871830e-03" style="stop-color:#FFEC00"/>
						<stop offset="1" style="stop-color:#EB6608"/>
					</linearGradient>
					<path class="st1" d="M430.8,204.7c-26.9-31.2-65.2-52.2-108.5-56.6c-5.6-0.6-11.4-0.9-17.2-0.9c-41.5,0-79.4,15.2-108.5,40.4&#10;&#9;&#9;&#9;&#9;&#9;&#9;c-32.1,27.8-53.5,67.6-57,112.5c-0.3,4.4-0.5,8.7-0.5,13.2c0,4.4,0.2,8.7,0.5,13c6.6,93.6,83.6,167.9,178.4,170.1&#10;&#9;&#9;&#9;&#9;&#9;&#9;c-48.5-1.2-91.8-23.2-121.4-57.5c-25.1-29.1-40.4-67-40.4-108.5c0-5.8,0.3-11.5,0.9-17.2c4.5-43.2,25.5-81.6,56.7-108.5&#10;&#9;&#9;&#9;&#9;&#9;&#9;c29.1-25.1,67-40.3,108.5-40.3c7.5,0,14.9,0.5,22.2,1.5c-4.6-0.6-9.3-1-14.1-1.3c75.8,4,136.5,64.8,140.5,140.5&#10;&#9;&#9;&#9;&#9;&#9;&#9;C469.1,266.8,454.3,231.9,430.8,204.7z M347.7,166.3c-1-0.2-2-0.3-3-0.4C345.6,166,346.7,166.1,347.7,166.3z M422.7,198.1&#10;&#9;&#9;&#9;&#9;&#9;&#9;c-0.4-0.3-0.9-0.6-1.3-1C421.8,197.5,422.3,197.8,422.7,198.1z M419.9,196c-0.5-0.3-0.9-0.7-1.4-1&#10;&#9;&#9;&#9;&#9;&#9;&#9;C419,195.4,419.4,195.7,419.9,196z M417,194c-0.5-0.3-1-0.7-1.4-1C416.1,193.4,416.6,193.7,417,194z M414.2,192.1&#10;&#9;&#9;&#9;&#9;&#9;&#9;c-0.5-0.3-1-0.7-1.5-1C413.2,191.4,413.7,191.7,414.2,192.1z M411.2,190.2c-0.5-0.3-1-0.6-1.5-1&#10;&#9;&#9;&#9;&#9;&#9;&#9;C410.2,189.5,410.7,189.8,411.2,190.2z M408.3,188.3c-0.5-0.3-1.1-0.6-1.6-1C407.2,187.7,407.8,188,408.3,188.3z M405.3,186.6&#10;&#9;&#9;&#9;&#9;&#9;&#9;c-0.6-0.3-1.1-0.6-1.7-0.9C404.2,185.9,404.8,186.2,405.3,186.6z M402.3,184.9c-0.6-0.3-1.2-0.6-1.7-0.9&#10;&#9;&#9;&#9;&#9;&#9;&#9;C401.1,184.2,401.7,184.5,402.3,184.9z M399.3,183.2c-0.6-0.3-1.2-0.6-1.8-1C398,182.6,398.6,182.9,399.3,183.2z M396.2,181.7&#10;&#9;&#9;&#9;&#9;&#9;&#9;c-0.7-0.3-1.3-0.7-2-1C394.9,181,395.6,181.4,396.2,181.7z M393.3,180.3c-0.7-0.4-1.5-0.7-2.3-1.1&#10;&#9;&#9;&#9;&#9;&#9;&#9;C391.8,179.6,392.6,179.9,393.3,180.3z M390.9,179.1c-3-1.4-6-2.6-9.1-3.8C384.9,176.5,387.9,177.8,390.9,179.1z M381.6,175.2&#10;&#9;&#9;&#9;&#9;&#9;&#9;c-0.9-0.3-1.7-0.6-2.6-1C379.9,174.6,380.7,174.9,381.6,175.2z M378.3,174c-0.8-0.3-1.6-0.6-2.4-0.8&#10;&#9;&#9;&#9;&#9;&#9;&#9;C376.7,173.5,377.5,173.7,378.3,174z M374.9,172.9c-0.8-0.3-1.6-0.5-2.4-0.8C373.3,172.3,374.1,172.6,374.9,172.9z&#10;&#9;&#9;&#9;&#9;&#9;&#9; M371.6,171.8c-0.8-0.2-1.6-0.5-2.4-0.7C370,171.3,370.8,171.5,371.6,171.8z M368.2,170.8c-0.8-0.2-1.6-0.4-2.4-0.7&#10;&#9;&#9;&#9;&#9;&#9;&#9;C366.6,170.3,367.4,170.5,368.2,170.8z M364.8,169.8c-0.8-0.2-1.6-0.4-2.4-0.6C363.1,169.4,364,169.6,364.8,169.8z M361.3,169&#10;&#9;&#9;&#9;&#9;&#9;&#9;c-0.8-0.2-1.6-0.4-2.4-0.6C359.7,168.6,360.5,168.8,361.3,169z M357.9,168.2c-0.8-0.2-1.7-0.4-2.5-0.5&#10;&#9;&#9;&#9;&#9;&#9;&#9;C356.2,167.8,357,168,357.9,168.2z M354.4,167.5c-0.9-0.2-1.8-0.3-2.6-0.5C352.7,167.1,353.6,167.3,354.4,167.5z M351,166.8&#10;&#9;&#9;&#9;&#9;&#9;&#9;c-0.9-0.2-1.9-0.3-2.8-0.5C349.2,166.5,350.1,166.7,351,166.8z M427.2,201.6c0.3,0.3,0.7,0.5,1,0.8&#10;&#9;&#9;&#9;&#9;&#9;&#9;C427.8,202.2,427.5,201.9,427.2,201.6z M424.3,199.3c0.4,0.3,0.8,0.6,1.2,0.9C425.1,199.9,424.7,199.6,424.3,199.3z" style="fill: url('#SVGID_2_'); fill-opacity: 1; stroke-opacity: 1;"/>
					<linearGradient id="SVGID_3_" gradientUnits="userSpaceOnUse" x1="433.5724" y1="460.9884" x2="195.2448" y2="222.6608">
						<stop offset="0" style="stop-color:#E5007E"/>
						<stop offset="0.1131" style="stop-color:#E5016F"/>
						<stop offset="0.5191" style="stop-color:#E3043D"/>
						<stop offset="0.8275" style="stop-color:#E2051F"/>
						<stop offset="1" style="stop-color:#E20613"/>
					</linearGradient>
					<path class="st2" d="M448,438.8c-29.1,25.1-67,40.4-108.5,40.4c-5.8,0-11.5-0.3-17.2-0.9c-43.2-4.4-81.6-25.5-108.5-56.6&#10;&#9;&#9;&#9;&#9;&#9;&#9;c-25.1-29.1-40.4-67-40.4-108.5c0-7.5,0.5-14.9,1.5-22.2c-0.6,4.6-1,9.3-1.3,14.1c4-75.8,64.8-136.5,140.5-140.5&#10;&#9;&#9;&#9;&#9;&#9;&#9;c-38.3,1.8-73.2,16.7-100.4,40.1c-31.2,26.9-52.2,65.3-56.7,108.5c-0.6,5.6-0.9,11.4-0.9,17.2c0,41.5,15.2,79.4,40.4,108.5&#10;&#9;&#9;&#9;&#9;&#9;&#9;c29.6,34.2,72.9,56.2,121.4,57.5c1.4,0,2.9,0.1,4.3,0.1c1.4,0,2.9,0,4.3-0.1c97.8-2.3,176.6-81.1,178.8-178.8&#10;&#9;&#9;&#9;&#9;&#9;&#9;C504.2,366,482.2,409.3,448,438.8z M210.8,208.3c0.3-0.3,0.5-0.6,0.8-1C211.3,207.7,211.1,208,210.8,208.3z M175,290.9&#10;&#9;&#9;&#9;&#9;&#9;&#9;c0.1-1,0.3-2,0.4-3C175.3,288.9,175.1,289.9,175,290.9z M175.5,287.3c0.1-0.9,0.3-1.9,0.4-2.8&#10;&#9;&#9;&#9;&#9;&#9;&#9;C175.8,285.4,175.6,286.3,175.5,287.3z M176.1,283.7c0.2-0.9,0.3-1.7,0.5-2.6C176.4,282,176.3,282.8,176.1,283.7z M176.8,280.1&#10;&#9;&#9;&#9;&#9;&#9;&#9;c0.2-0.8,0.4-1.7,0.5-2.5C177.1,278.5,177,279.3,176.8,280.1z M177.5,276.6c0.2-0.8,0.4-1.6,0.6-2.4&#10;&#9;&#9;&#9;&#9;&#9;&#9;C177.9,275,177.7,275.8,177.5,276.6z M178.3,273.2c0.2-0.8,0.4-1.6,0.6-2.4C178.8,271.6,178.6,272.4,178.3,273.2z M179.2,269.7&#10;&#9;&#9;&#9;&#9;&#9;&#9;c0.2-0.8,0.4-1.6,0.7-2.4C179.7,268.1,179.5,268.9,179.2,269.7z M180.2,266.3c0.2-0.8,0.5-1.6,0.7-2.3&#10;&#9;&#9;&#9;&#9;&#9;&#9;C180.7,264.7,180.4,265.5,180.2,266.3z M181.2,262.9c0.2-0.8,0.5-1.6,0.8-2.3C181.7,261.4,181.5,262.2,181.2,262.9z&#10;&#9;&#9;&#9;&#9;&#9;&#9; M182.3,259.6c0.3-0.8,0.5-1.6,0.8-2.4C182.9,258,182.6,258.8,182.3,259.6z M183.4,256.4c0.3-0.8,0.6-1.7,0.9-2.5&#10;&#9;&#9;&#9;&#9;&#9;&#9;C184.1,254.8,183.8,255.6,183.4,256.4z M184.5,253.5c1.1-3,2.4-5.9,3.7-8.8C186.9,247.6,185.7,250.6,184.5,253.5z M188.4,244.4&#10;&#9;&#9;&#9;&#9;&#9;&#9;c0.3-0.7,0.7-1.4,1-2.1C189,243,188.7,243.7,188.4,244.4z M189.9,241.2c0.3-0.7,0.6-1.3,0.9-1.9&#10;&#9;&#9;&#9;&#9;&#9;&#9;C190.5,240,190.2,240.6,189.9,241.2z M191.4,238.1c0.3-0.6,0.6-1.2,0.9-1.8C192,236.9,191.7,237.5,191.4,238.1z M193,234.9&#10;&#9;&#9;&#9;&#9;&#9;&#9;c0.3-0.6,0.6-1.1,0.9-1.7C193.7,233.8,193.4,234.4,193,234.9z M194.7,231.8c0.3-0.5,0.6-1.1,0.9-1.6&#10;&#9;&#9;&#9;&#9;&#9;&#9;C195.4,230.8,195.1,231.3,194.7,231.8z M196.5,228.8c0.3-0.5,0.6-1,0.9-1.6C197.1,227.7,196.8,228.3,196.5,228.8z M198.3,225.8&#10;&#9;&#9;&#9;&#9;&#9;&#9;c0.3-0.5,0.6-1,1-1.5C199,224.8,198.6,225.3,198.3,225.8z M200.2,222.8c0.3-0.5,0.6-1,1-1.5&#10;&#9;&#9;&#9;&#9;&#9;&#9;C200.9,221.8,200.5,222.3,200.2,222.8z M202.2,219.9c0.3-0.5,0.6-0.9,1-1.4C202.8,218.9,202.5,219.4,202.2,219.9z M204.2,217&#10;&#9;&#9;&#9;&#9;&#9;&#9;c0.3-0.5,0.6-0.9,1-1.3C204.8,216.1,204.5,216.5,204.2,217z M206.3,214.1c0.3-0.4,0.6-0.8,1-1.3&#10;&#9;&#9;&#9;&#9;&#9;&#9;C206.9,213.2,206.6,213.7,206.3,214.1z M208.5,211.2c0.3-0.4,0.6-0.8,0.9-1.2C209.1,210.5,208.8,210.8,208.5,211.2z" style="fill: url('#SVGID_3_'); fill-opacity: 1; stroke-opacity: 1;"/>
					<linearGradient id="SVGID_4_" gradientUnits="userSpaceOnUse" x1="234.1051" y1="442.5629" x2="472.4134" y2="204.2545">
						<stop offset="0" style="stop-color:#702382"/>
						<stop offset="1" style="stop-color:#009EE2"/>
					</linearGradient>
					<path class="st3" d="M505.5,308.9c-2.2-94.8-76.4-171.8-170.1-178.4c44.9,3.5,84.8,24.9,112.6,57c25.1,29.1,40.4,67,40.4,108.5&#10;&#9;&#9;&#9;&#9;&#9;&#9;c0,5.8-0.3,11.5-0.9,17.2c-4.5,43.2-25.5,81.6-56.7,108.5c-27.2,23.5-62.1,38.3-100.4,40.2c-2.7,0.1-5.4,0.2-8.1,0.2&#10;&#9;&#9;&#9;&#9;&#9;&#9;c-2.7,0-5.4-0.1-8-0.2c-0.1,0-0.2,0-0.3,0c-75.7-4.1-136.3-64.8-140.4-140.5c1.8,38.3,16.7,73.2,40.2,100.4&#10;&#9;&#9;&#9;&#9;&#9;&#9;c1.6,1.4,3.2,2.8,4.9,4.1c-1.7-1.3-3.3-2.7-4.9-4.1c26.9,31.2,65.2,52.2,108.5,56.6c5.6,0.6,11.4,0.9,17.2,0.9&#10;&#9;&#9;&#9;&#9;&#9;&#9;c41.5,0,79.4-15.2,108.5-40.4c34.2-29.6,56.2-72.9,57.5-121.4c0-1.4,0.1-2.8,0.1-4.3C505.5,311.8,505.5,310.3,505.5,308.9z&#10;&#9;&#9;&#9;&#9;&#9;&#9; M219,426c6.2,4.9,12.7,9.4,19.5,13.4C231.7,435.3,225.2,430.9,219,426z M312.3,461.7c-0.6,0-1.1-0.1-1.7-0.1&#10;&#9;&#9;&#9;&#9;&#9;&#9;C311.2,461.7,311.8,461.7,312.3,461.7z M308.8,461.5c-0.6,0-1.1-0.1-1.7-0.1C307.7,461.4,308.2,461.4,308.8,461.5z&#10;&#9;&#9;&#9;&#9;&#9;&#9; M305.2,461.1c-0.5-0.1-1.1-0.1-1.6-0.2C304.1,461,304.7,461.1,305.2,461.1z M301.7,460.7c-0.6-0.1-1.1-0.1-1.7-0.2&#10;&#9;&#9;&#9;&#9;&#9;&#9;C300.6,460.6,301.2,460.7,301.7,460.7z M298.3,460.3c-0.6-0.1-1.2-0.2-1.8-0.2C297.2,460.1,297.8,460.2,298.3,460.3z&#10;&#9;&#9;&#9;&#9;&#9;&#9; M294.9,459.7c-0.6-0.1-1.2-0.2-1.8-0.3C293.7,459.6,294.3,459.7,294.9,459.7z M291.4,459.1c-0.6-0.1-1.2-0.2-1.8-0.3&#10;&#9;&#9;&#9;&#9;&#9;&#9;C290.2,458.9,290.8,459,291.4,459.1z M288,458.5c-0.6-0.1-1.2-0.3-1.8-0.4C286.8,458.2,287.4,458.3,288,458.5z M284.8,457.7&#10;&#9;&#9;&#9;&#9;&#9;&#9;c-0.7-0.2-1.3-0.3-1.9-0.5C283.5,457.4,284.1,457.6,284.8,457.7z M281.5,456.9c-0.7-0.2-1.3-0.3-2-0.5&#10;&#9;&#9;&#9;&#9;&#9;&#9;C280.1,456.6,280.8,456.8,281.5,456.9z M278.1,456.1c-0.7-0.2-1.3-0.4-2-0.6C276.8,455.7,277.5,455.9,278.1,456.1z&#10;&#9;&#9;&#9;&#9;&#9;&#9; M274.9,455.1c-0.7-0.2-1.4-0.4-2-0.6C273.5,454.7,274.2,454.9,274.9,455.1z M271.5,454.1c-0.7-0.2-1.3-0.4-2-0.6&#10;&#9;&#9;&#9;&#9;&#9;&#9;C270.2,453.7,270.9,453.9,271.5,454.1z M268.4,453c-0.7-0.2-1.4-0.5-2.1-0.7C267,452.6,267.7,452.8,268.4,453z M265.3,452&#10;&#9;&#9;&#9;&#9;&#9;&#9;c-0.7-0.3-1.5-0.5-2.2-0.8C263.8,451.4,264.6,451.7,265.3,452z M262.1,450.8c-0.8-0.3-1.5-0.6-2.3-0.9&#10;&#9;&#9;&#9;&#9;&#9;&#9;C260.6,450.2,261.4,450.5,262.1,450.8z M259.1,449.5c-0.8-0.3-1.6-0.6-2.3-1C257.5,448.9,258.3,449.2,259.1,449.5z M256,448.2&#10;&#9;&#9;&#9;&#9;&#9;&#9;c-0.8-0.4-1.6-0.7-2.4-1.1C254.4,447.5,255.2,447.9,256,448.2z M253.1,446.9c-0.9-0.4-1.7-0.8-2.5-1.2&#10;&#9;&#9;&#9;&#9;&#9;&#9;C251.3,446.1,252.2,446.5,253.1,446.9z M250.2,445.6c-0.9-0.4-1.8-0.9-2.7-1.3C248.4,444.7,249.3,445.1,250.2,445.6z&#10;&#9;&#9;&#9;&#9;&#9;&#9; M247.1,444c-0.9-0.5-1.8-0.9-2.7-1.4C245.3,443.1,246.2,443.6,247.1,444z M244.2,442.5c-0.9-0.5-1.9-1-2.8-1.5&#10;&#9;&#9;&#9;&#9;&#9;&#9;C242.4,441.5,243.3,442,244.2,442.5z M241.2,440.9c-0.9-0.5-1.8-1-2.7-1.5C239.4,439.9,240.3,440.4,241.2,440.9z" style="fill: url('#SVGID_4_'); fill-opacity: 1; stroke-opacity: 1;"/>
				</g>
			</g>
			<path class="st4" d="M326.4,246.1c32.9,0,56.6,16.2,65.5,40.9l-14.1,7.4c-7.6-20.6-25.3-33.2-51.3-33.2&#10;&#9;&#9;&#9;&#9;c-32.9,0-56.8,20.2-56.8,49.9c0,29.7,23.9,49.9,56.8,49.9c26,0,43.8-12.7,51.3-33.2l14.1,7.4c-9,24.8-32.7,40.9-65.5,40.9&#10;&#9;&#9;&#9;&#9;c-42,0-73.6-27.2-73.6-65C252.8,273.4,284.4,246.1,326.4,246.1z" style="fill: rgb(50, 49, 26); fill-opacity: 1; stroke-opacity: 1;"/>
		</g>
	</g>
	<g>
		<path class="st4" d="M642.7,246.2c32.8,0,56.5,16.1,65.4,40.9l-14,7.4c-7.5-20.5-25.3-33.2-51.2-33.2c-32.8,0-56.7,20.2-56.7,49.8&#10;&#9;&#9;&#9;c0,29.6,23.9,49.8,56.7,49.8c26,0,43.7-12.6,51.2-33.2l14,7.4c-8.9,24.7-32.6,40.9-65.4,40.9c-41.9,0-73.5-27.2-73.5-64.9&#10;&#9;&#9;&#9;S600.8,246.2,642.7,246.2z" style="fill: rgb(35, 35, 18);"/>
		<path class="st4" d="M738.9,374.1h-16.8v-126h78.8c26.3,0,44.6,12.5,44.6,36.5c0,20.2-13.3,32.6-33.7,35.8l36.3,53.7h-19.3&#10;&#9;&#9;&#9;l-35.4-52.8h-54.4V374.1z M800,306.8c17.9,0,28.9-7.9,28.9-22.1s-11.1-21.9-28.9-21.9h-61v44H800z" style="fill: rgb(35, 35, 18);"/>
		<path class="st4" d="M977.9,248.2v14.7H877.6v38.8h90.3v14.7h-90.3v43h100.3v14.7H861.1v-126H977.9z" style="fill: rgb(35, 35, 18);"/>
		<path class="st4" d="M1074.5,248.2l66.1,126h-17.9l-18.2-34.9h-78.4l-18.4,34.9h-17.9l66.3-126H1074.5z M1033.8,324.5h63&#10;&#9;&#9;&#9;l-31.4-59.8L1033.8,324.5z" style="fill: rgb(35, 35, 18);"/>
		<path class="st4" d="M1151.8,248.2h62.3c42.3,0,70.3,24.6,70.3,63c0,38.4-28.1,63-70.3,63h-62.3V248.2z M1214.1,359.6&#10;&#9;&#9;&#9;c32.6,0,53.3-19.1,53.3-48.4c0-29.5-20.7-48.4-53.5-48.4h-45.6v96.8H1214.1z" style="fill: rgb(35, 35, 18);"/>
		<path class="st4" d="M1299.4,332c12.5,21.2,36.7,29.3,58.6,29.3c24.9,0,43-9.1,43-23.2c0-15.3-12.3-17.5-50-21.6&#10;&#9;&#9;&#9;c-32.8-3.3-55.6-8.2-55.6-32.5c0-21.9,22.5-37.9,55.8-37.9c29.3,0,53,11.4,63,28.1l-12.3,9.8c-8.8-14-26.8-23.2-51.4-23.2&#10;&#9;&#9;&#9;c-25.6,0-39.1,9.8-39.1,21.6c0,13.3,12.3,16,44.9,19.3c39.5,4.2,61.2,8.9,61.2,34.6c0,24.9-25.8,39.6-59.8,39.6&#10;&#9;&#9;&#9;c-31.1,0-59.1-12.8-70.5-33.2L1299.4,332z" style="fill: rgb(35, 35, 18);"/>
	</g>
</g></g></svg>
